%TF.GenerationSoftware,KiCad,Pcbnew,7.0.9+1*%
%TF.CreationDate,2023-12-23T17:09:26+01:00*%
%TF.ProjectId,PCB_external_oscillator,5043425f-6578-4746-9572-6e616c5f6f73,rev?*%
%TF.SameCoordinates,Original*%
%TF.FileFunction,Soldermask,Top*%
%TF.FilePolarity,Negative*%
%FSLAX46Y46*%
G04 Gerber Fmt 4.6, Leading zero omitted, Abs format (unit mm)*
G04 Created by KiCad (PCBNEW 7.0.9+1) date 2023-12-23 17:09:26*
%MOMM*%
%LPD*%
G01*
G04 APERTURE LIST*
%ADD10O,1.700000X1.700000*%
%ADD11R,1.700000X1.700000*%
%ADD12C,1.500000*%
%ADD13O,1.600000X2.400000*%
%ADD14R,1.600000X2.400000*%
%ADD15C,1.600000*%
%ADD16C,1.400000*%
%ADD17O,1.400000X1.400000*%
%ADD18O,2.400000X1.600000*%
%ADD19R,2.400000X1.600000*%
G04 APERTURE END LIST*
D10*
%TO.C,J2*%
X53975000Y-46177200D03*
X51435000Y-46177200D03*
X48895000Y-46177200D03*
X46355000Y-46177200D03*
X43815000Y-46177200D03*
X41275000Y-46177200D03*
D11*
X38735000Y-46177200D03*
%TD*%
D10*
%TO.C,J1*%
X53949600Y-38481000D03*
X51409600Y-38481000D03*
X48869600Y-38481000D03*
X46329600Y-38481000D03*
X43789600Y-38481000D03*
X41249600Y-38481000D03*
D11*
X38709600Y-38481000D03*
%TD*%
D12*
%TO.C,Y1*%
X55935000Y-30665200D03*
X51055000Y-30665200D03*
%TD*%
D13*
%TO.C,74LS86*%
X38727600Y-42450800D03*
X41267600Y-42450800D03*
X43807600Y-42450800D03*
X46347600Y-42450800D03*
X48887600Y-42450800D03*
X51427600Y-42450800D03*
X53967600Y-42450800D03*
X53967600Y-50070800D03*
X51427600Y-50070800D03*
X48887600Y-50070800D03*
X46347600Y-50070800D03*
X43807600Y-50070800D03*
X41267600Y-50070800D03*
D14*
X38727600Y-50070800D03*
%TD*%
D15*
%TO.C,C1*%
X45357000Y-33992600D03*
X42857000Y-33992600D03*
%TD*%
D16*
%TO.C,R1*%
X54940200Y-35102800D03*
D17*
X49860200Y-35102800D03*
%TD*%
D18*
%TO.C,U1*%
X67056000Y-35534600D03*
X67056000Y-38074600D03*
X67056000Y-40614600D03*
X67056000Y-43154600D03*
X67056000Y-45694600D03*
X67056000Y-48234600D03*
X67056000Y-50774600D03*
X59436000Y-50774600D03*
X59436000Y-48234600D03*
X59436000Y-45694600D03*
X59436000Y-43154600D03*
X59436000Y-40614600D03*
X59436000Y-38074600D03*
D19*
X59436000Y-35534600D03*
%TD*%
D16*
%TO.C,R2*%
X38143400Y-34627600D03*
D17*
X38143400Y-29547600D03*
%TD*%
D15*
%TO.C,C2*%
X42869800Y-30835600D03*
X45369800Y-30835600D03*
%TD*%
M02*
