%TF.GenerationSoftware,KiCad,Pcbnew,7.0.9+1*%
%TF.CreationDate,2023-12-23T17:09:25+01:00*%
%TF.ProjectId,PCB_external_oscillator,5043425f-6578-4746-9572-6e616c5f6f73,rev?*%
%TF.SameCoordinates,Original*%
%TF.FileFunction,Copper,L2,Bot*%
%TF.FilePolarity,Positive*%
%FSLAX46Y46*%
G04 Gerber Fmt 4.6, Leading zero omitted, Abs format (unit mm)*
G04 Created by KiCad (PCBNEW 7.0.9+1) date 2023-12-23 17:09:25*
%MOMM*%
%LPD*%
G01*
G04 APERTURE LIST*
%TA.AperFunction,ComponentPad*%
%ADD10O,1.700000X1.700000*%
%TD*%
%TA.AperFunction,ComponentPad*%
%ADD11R,1.700000X1.700000*%
%TD*%
%TA.AperFunction,ComponentPad*%
%ADD12C,1.500000*%
%TD*%
%TA.AperFunction,ComponentPad*%
%ADD13O,1.600000X2.400000*%
%TD*%
%TA.AperFunction,ComponentPad*%
%ADD14R,1.600000X2.400000*%
%TD*%
%TA.AperFunction,ComponentPad*%
%ADD15C,1.600000*%
%TD*%
%TA.AperFunction,ComponentPad*%
%ADD16C,1.400000*%
%TD*%
%TA.AperFunction,ComponentPad*%
%ADD17O,1.400000X1.400000*%
%TD*%
%TA.AperFunction,ComponentPad*%
%ADD18O,2.400000X1.600000*%
%TD*%
%TA.AperFunction,ComponentPad*%
%ADD19R,2.400000X1.600000*%
%TD*%
%TA.AperFunction,Conductor*%
%ADD20C,1.000000*%
%TD*%
G04 APERTURE END LIST*
D10*
%TO.P,J2,7*%
%TO.N,GND*%
X53975000Y-46177200D03*
%TO.P,J2,6*%
%TO.N,unconnected-(U2-Pad6)*%
X51435000Y-46177200D03*
%TO.P,J2,5*%
%TO.N,unconnected-(U2-Pad5)*%
X48895000Y-46177200D03*
%TO.P,J2,4*%
%TO.N,unconnected-(U2-Pad4)*%
X46355000Y-46177200D03*
%TO.P,J2,3*%
%TO.N,unconnected-(U2-Pad3)*%
X43815000Y-46177200D03*
%TO.P,J2,2*%
%TO.N,unconnected-(U2-Pad2)*%
X41275000Y-46177200D03*
D11*
%TO.P,J2,1*%
%TO.N,unconnected-(U2-Pad1)*%
X38735000Y-46177200D03*
%TD*%
D10*
%TO.P,J1,7*%
%TO.N,CLK*%
X53949600Y-38481000D03*
%TO.P,J1,6*%
%TO.N,unconnected-(U2-Pad9)*%
X51409600Y-38481000D03*
%TO.P,J1,5*%
%TO.N,unconnected-(U2-Pad10)*%
X48869600Y-38481000D03*
%TO.P,J1,4*%
%TO.N,unconnected-(U2-Pad11)*%
X46329600Y-38481000D03*
%TO.P,J1,3*%
%TO.N,unconnected-(U2-Pad12)*%
X43789600Y-38481000D03*
%TO.P,J1,2*%
%TO.N,unconnected-(U2-Pad13)*%
X41249600Y-38481000D03*
D11*
%TO.P,J1,1*%
%TO.N,+5V*%
X38709600Y-38481000D03*
%TD*%
D12*
%TO.P,Y1,1,1*%
%TO.N,Net-(C1-Pad1)*%
X55935000Y-30665200D03*
%TO.P,Y1,2,2*%
%TO.N,Net-(C2-Pad1)*%
X51055000Y-30665200D03*
%TD*%
D13*
%TO.P,74LS86,14*%
%TO.N,+5V*%
X38727600Y-42450800D03*
%TO.P,74LS86,13*%
%TO.N,unconnected-(U2-Pad13)*%
X41267600Y-42450800D03*
%TO.P,74LS86,12*%
%TO.N,unconnected-(U2-Pad12)*%
X43807600Y-42450800D03*
%TO.P,74LS86,11*%
%TO.N,unconnected-(U2-Pad11)*%
X46347600Y-42450800D03*
%TO.P,74LS86,10*%
%TO.N,unconnected-(U2-Pad10)*%
X48887600Y-42450800D03*
%TO.P,74LS86,9*%
%TO.N,unconnected-(U2-Pad9)*%
X51427600Y-42450800D03*
%TO.P,74LS86,8*%
%TO.N,unconnected-(U2-Pad8)*%
X53967600Y-42450800D03*
%TO.P,74LS86,7*%
%TO.N,GND*%
X53967600Y-50070800D03*
%TO.P,74LS86,6*%
%TO.N,unconnected-(U2-Pad6)*%
X51427600Y-50070800D03*
%TO.P,74LS86,5*%
%TO.N,unconnected-(U2-Pad5)*%
X48887600Y-50070800D03*
%TO.P,74LS86,4*%
%TO.N,unconnected-(U2-Pad4)*%
X46347600Y-50070800D03*
%TO.P,74LS86,3*%
%TO.N,unconnected-(U2-Pad3)*%
X43807600Y-50070800D03*
%TO.P,74LS86,2*%
%TO.N,unconnected-(U2-Pad2)*%
X41267600Y-50070800D03*
D14*
%TO.P,74LS86,1*%
%TO.N,unconnected-(U2-Pad1)*%
X38727600Y-50070800D03*
%TD*%
D15*
%TO.P,C1,1*%
%TO.N,Net-(C1-Pad1)*%
X45357000Y-33992600D03*
%TO.P,C1,2*%
%TO.N,GND*%
X42857000Y-33992600D03*
%TD*%
D16*
%TO.P,R1,1*%
%TO.N,Net-(C1-Pad1)*%
X54940200Y-35102800D03*
D17*
%TO.P,R1,2*%
%TO.N,Net-(R1-Pad2)*%
X49860200Y-35102800D03*
%TD*%
D18*
%TO.P,U1,14,VCC*%
%TO.N,+5V*%
X67056000Y-35534600D03*
%TO.P,U1,13*%
%TO.N,unconnected-(U1-Pad13)*%
X67056000Y-38074600D03*
%TO.P,U1,12*%
%TO.N,unconnected-(U1-Pad12)*%
X67056000Y-40614600D03*
%TO.P,U1,11*%
%TO.N,unconnected-(U1-Pad11)*%
X67056000Y-43154600D03*
%TO.P,U1,10*%
%TO.N,unconnected-(U1-Pad10)*%
X67056000Y-45694600D03*
%TO.P,U1,9*%
%TO.N,unconnected-(U1-Pad9)*%
X67056000Y-48234600D03*
%TO.P,U1,8*%
%TO.N,unconnected-(U1-Pad8)*%
X67056000Y-50774600D03*
%TO.P,U1,7,GND*%
%TO.N,GND*%
X59436000Y-50774600D03*
%TO.P,U1,6*%
%TO.N,unconnected-(U1-Pad6)*%
X59436000Y-48234600D03*
%TO.P,U1,5*%
%TO.N,unconnected-(U1-Pad5)*%
X59436000Y-45694600D03*
%TO.P,U1,4*%
%TO.N,CLK*%
X59436000Y-43154600D03*
%TO.P,U1,3*%
%TO.N,Net-(R1-Pad2)*%
X59436000Y-40614600D03*
%TO.P,U1,2*%
X59436000Y-38074600D03*
D19*
%TO.P,U1,1*%
%TO.N,Net-(C1-Pad1)*%
X59436000Y-35534600D03*
%TD*%
D16*
%TO.P,R2,1*%
%TO.N,Net-(R1-Pad2)*%
X38143400Y-34627600D03*
D17*
%TO.P,R2,2*%
%TO.N,Net-(C2-Pad1)*%
X38143400Y-29547600D03*
%TD*%
D15*
%TO.P,C2,1*%
%TO.N,Net-(C2-Pad1)*%
X42869800Y-30835600D03*
%TO.P,C2,2*%
%TO.N,GND*%
X45369800Y-30835600D03*
%TD*%
D20*
%TO.N,Net-(R1-Pad2)*%
X49530000Y-32385000D02*
X50596800Y-32385000D01*
X50596800Y-32385000D02*
X50647600Y-32334200D01*
X49860200Y-35102800D02*
X49860200Y-33121600D01*
X49860200Y-33121600D02*
X50647600Y-32334200D01*
X50647600Y-32334200D02*
X60934600Y-32334200D01*
X60934600Y-32334200D02*
X61823600Y-33223200D01*
X61823600Y-33223200D02*
X61823600Y-37261800D01*
X61010800Y-38074600D02*
X59436000Y-38074600D01*
X61823600Y-37261800D02*
X61010800Y-38074600D01*
X49530000Y-32385000D02*
X49860200Y-32715200D01*
X49860200Y-32715200D02*
X49860200Y-35102800D01*
X38455600Y-32385000D02*
X38143400Y-32697200D01*
X38143400Y-32697200D02*
X38143400Y-34627600D01*
X38455600Y-32385000D02*
X49530000Y-32385000D01*
%TO.N,GND*%
X42857000Y-33992600D02*
X42857000Y-36354600D01*
X42857000Y-36354600D02*
X43357800Y-36855400D01*
X43357800Y-36855400D02*
X55702200Y-36855400D01*
X55702200Y-36855400D02*
X56743600Y-37896800D01*
X56743600Y-37896800D02*
X56743600Y-45466000D01*
X56743600Y-45466000D02*
X56032400Y-46177200D01*
X56032400Y-46177200D02*
X53975000Y-46177200D01*
%TD*%
M02*
